<?xml version="1.0" encoding="UTF-8"?>
<svg version="1.1" xmlns="http://www.w3.org/2000/svg" width="512" height="512">
<path d="M0 0 C61.71 0 123.42 0 187 0 C187 61.71 187 123.42 187 187 C125.29 187 63.58 187 0 187 C0 125.29 0 63.58 0 0 Z M47 47 C47 77.69 47 108.38 47 140 C77.69 140 108.38 140 140 140 C140 109.31 140 78.62 140 47 C109.31 47 78.62 47 47 47 Z " fill="#0C1714" transform="translate(46,279)"/>
<path d="M0 0 C61.71 0 123.42 0 187 0 C187 61.71 187 123.42 187 187 C125.29 187 63.58 187 0 187 C0 125.29 0 63.58 0 0 Z M47 47 C47 77.69 47 108.38 47 140 C77.69 140 108.38 140 140 140 C140 109.31 140 78.62 140 47 C109.31 47 78.62 47 47 47 Z " fill="#0C1714" transform="translate(46,46)"/>
<path d="M0 0 C61.71 0 123.42 0 187 0 C187 15.51 187 31.02 187 47 C125.29 47 63.58 47 0 47 C0 31.49 0 15.98 0 0 Z " fill="#0C1714" transform="translate(279,419)"/>
<path d="M0 0 C61.71 0 123.42 0 187 0 C187 15.51 187 31.02 187 47 C125.29 47 63.58 47 0 47 C0 31.49 0 15.98 0 0 Z " fill="#0C1714" transform="translate(279,46)"/>
<path d="M0 0 C61.71 0 123.42 0 187 0 C187 15.18 187 30.36 187 46 C125.29 46 63.58 46 0 46 C0 30.82 0 15.64 0 0 Z " fill="#0C1714" transform="translate(279,326)"/>
<path d="M0 0 C61.71 0 123.42 0 187 0 C187 15.18 187 30.36 187 46 C125.29 46 63.58 46 0 46 C0 30.82 0 15.64 0 0 Z " fill="#0C1714" transform="translate(279,233)"/>
<path d="M0 0 C61.71 0 123.42 0 187 0 C187 15.18 187 30.36 187 46 C125.29 46 63.58 46 0 46 C0 30.82 0 15.64 0 0 Z " fill="#0C1714" transform="translate(279,140)"/>
</svg>
